<svg xmlns="http://www.w3.org/2000/svg" width="106" height="28" viewBox="0 0 76 20" fill="none"><div xmlns="" id="in-page-channel-node-id" data-channel-name="in_page_channel_lAbXjx"/>
<path fill-rule="evenodd" clip-rule="evenodd" d="M24.9676 5.06683H22.8571L26.5338 13.7218C26.5847 13.8421 26.6521 13.9513 26.7362 14.0493C26.8202 14.1473 26.9154 14.232 27.0216 14.3033C27.13 14.3723 27.2461 14.4258 27.37 14.4637C27.4961 14.5038 27.6266 14.5238 27.7615 14.5238C27.892 14.5238 28.0181 14.5038 28.1398 14.4637C28.2637 14.4258 28.3776 14.3723 28.4816 14.3033C28.5878 14.232 28.6829 14.1473 28.767 14.0493C28.851 13.9513 28.9185 13.8421 28.9694 13.7218L31.4547 7.87051L33.9567 13.7352C34.0076 13.8532 34.0739 13.9613 34.1558 14.0593C34.2399 14.1551 34.3339 14.2375 34.4378 14.3066C34.544 14.3757 34.6591 14.4291 34.7829 14.467C34.9068 14.5049 35.0351 14.5238 35.1679 14.5238C35.2962 14.5238 35.42 14.5049 35.5395 14.467C35.6612 14.4291 35.774 14.3757 35.878 14.3066C35.9842 14.2375 36.0782 14.154 36.16 14.056C36.2419 13.958 36.3082 13.8499 36.3591 13.7318L40.0523 5.06683H37.9419L35.1579 11.5965L32.6825 5.81203C32.6294 5.6895 32.5597 5.57923 32.4734 5.4812C32.3894 5.38095 32.2932 5.29518 32.1848 5.22389C32.0786 5.1526 31.9624 5.09802 31.8363 5.06015C31.7125 5.02005 31.5853 5 31.4547 5H31.4381C31.3076 5 31.1793 5.02005 31.0532 5.06015C30.9293 5.09802 30.8132 5.1526 30.7048 5.22389C30.5986 5.29518 30.5035 5.38095 30.4194 5.4812C30.3354 5.57923 30.2668 5.6895 30.2137 5.81203L27.7516 11.5965L24.9676 5.06683ZM44.9135 5.06658H42.9724V14.4233H44.9135V5.06658ZM49.0683 14.4232C48.9046 14.4232 48.7553 14.3976 48.6203 14.3464C48.4876 14.2929 48.3737 14.2183 48.2786 14.1225C48.1834 14.0267 48.1093 13.9119 48.0562 13.7783C48.0054 13.6424 47.9799 13.492 47.9799 13.3272V13.2737C47.9799 13.1779 47.9921 13.0832 48.0164 12.9896C48.043 12.8938 48.0784 12.8036 48.1226 12.719C48.1691 12.6321 48.2244 12.5519 48.2885 12.4784C48.3549 12.4048 48.4279 12.3414 48.5075 12.2879L56.6571 6.8543H48.2321V5.0665H58.7841C58.9478 5.0665 59.0961 5.09323 59.2288 5.1467C59.3637 5.19794 59.4788 5.27146 59.5739 5.36725C59.669 5.46305 59.742 5.57889 59.7929 5.71479C59.846 5.84845 59.8725 5.99772 59.8725 6.16257V6.21604C59.8725 6.31184 59.8593 6.40763 59.8327 6.50343C59.8084 6.59699 59.773 6.68722 59.7265 6.7741C59.6823 6.85876 59.627 6.93784 59.5606 7.01136C59.4965 7.08488 59.4246 7.14837 59.3449 7.20184L51.1953 12.6354H59.6203V14.4232H49.0683ZM62.8497 6.13918V13.3505C62.8497 13.5109 62.8751 13.6569 62.926 13.7883C62.9769 13.9197 63.0488 14.0334 63.1417 14.1292C63.2368 14.2227 63.3497 14.2951 63.4802 14.3464C63.6107 14.3976 63.7556 14.4232 63.9149 14.4232H74.739V12.6354H64.7909V10.5368H73.5312V8.74904H64.7909V6.8543H74.739V5.0665H63.9149C63.7556 5.0665 63.6107 5.09212 63.4802 5.14336C63.3497 5.1946 63.2368 5.26811 63.1417 5.36391C63.0488 5.45748 62.9769 5.56998 62.926 5.70142C62.8751 5.83286 62.8497 5.97878 62.8497 6.13918Z" fill="#FDF8FD"/>
<ellipse cx="4.73684" cy="4.73717" rx="3.07018" ry="3.07018" fill="#709EFF"/>
<ellipse cx="14.8246" cy="10.4392" rx="2.63158" ry="2.63158" fill="#709EFF"/>
<circle cx="7.36842" cy="14.3858" r="3.94737" fill="#709EFF"/>
<rect x="4.29824" y="6.53711" width="1.75439" height="5.26316" transform="rotate(-16.0172 4.29824 6.53711)" fill="#709EFF"/>
<rect x="13.3764" y="10.4385" width="1.75439" height="5.26316" transform="rotate(63.068 13.3764 10.4385)" fill="#709EFF"/>
<script xmlns=""/></svg>
